<?xml version="1.0" standalone="no"?>
<!DOCTYPE svg PUBLIC "-//W3C//DTD SVG 20010904//EN"
 "http://www.w3.org/TR/2001/REC-SVG-20010904/DTD/svg10.dtd">
<svg version="1.0" xmlns="http://www.w3.org/2000/svg"
 width="2000.000000pt" height="2000.000000pt" viewBox="0 0 2000.000000 2000.000000"
 preserveAspectRatio="xMidYMid meet">
<metadata>
Created by potrace 1.14, written by Peter Selinger 2001-2017
</metadata>
<g transform="translate(0.000000,2000.000000) scale(0.100000,-0.100000)"
fill="#000000" stroke="none">
<path d="M4761 14946 c-37 -164 -223 -430 -464 -663 -338 -326 -696 -539 -945
-560 -62 -5 -72 -8 -66 -22 79 -187 120 -448 133 -855 19 -532 -41 -908 -164
-1030 l-33 -33 86 -7 c213 -16 435 -137 634 -345 105 -109 190 -229 243 -344
36 -78 65 -174 65 -215 0 -20 4 -23 23 -19 226 49 400 81 522 97 365 46 1188
53 1451 12 444 -70 805 -244 977 -470 62 -81 92 -138 124 -228 23 -68 27 -94
26 -189 -1 -174 -45 -280 -160 -385 -177 -162 -429 -225 -903 -224 -272 0
-365 12 -552 74 -263 87 -464 225 -594 407 -89 124 -154 302 -154 424 l0 52
-32 -6 c-18 -3 -73 -13 -123 -21 -166 -29 -308 -38 -570 -38 -286 0 -509 13
-744 43 -85 10 -155 18 -157 16 -2 -2 5 -45 16 -97 46 -232 76 -686 67 -1015
-8 -282 -42 -623 -77 -782 -6 -25 -9 -47 -7 -50 3 -2 38 7 78 21 176 59 437
92 634 81 210 -11 436 -48 611 -100 18 -6 23 1 42 59 40 120 83 198 147 263
33 35 67 63 74 63 25 0 145 -136 203 -229 31 -51 69 -126 84 -169 15 -42 29
-79 30 -81 2 -2 40 13 86 32 156 67 412 121 698 148 173 17 717 17 915 0 291
-24 536 -77 683 -146 41 -19 77 -33 82 -30 4 2 10 26 14 53 24 179 304 535
621 787 307 245 615 395 811 395 l52 0 -29 74 c-113 291 -155 1074 -79 1493
33 185 77 294 140 346 l30 25 -78 7 c-143 12 -247 46 -387 126 -231 132 -432
341 -560 580 -47 91 -85 188 -85 223 0 43 -11 46 -90 26 -259 -65 -714 -95
-1363 -87 -328 4 -460 9 -547 21 -307 45 -561 128 -724 237 -83 56 -190 162
-230 229 -56 91 -87 193 -93 300 -9 159 32 273 135 378 173 177 449 265 877
279 374 12 682 -66 930 -238 154 -106 308 -298 369 -461 29 -76 56 -201 56
-258 0 -47 -9 -46 146 -20 327 54 824 54 1222 -1 84 -12 156 -19 158 -16 3 3
-4 79 -15 168 -38 299 -42 371 -48 740 -7 435 7 675 63 1083 7 46 6 49 -12 42
-34 -14 -227 -55 -314 -68 -49 -8 -177 -13 -305 -12 -236 0 -342 14 -453 57
-32 12 -61 22 -65 22 -4 0 -21 -39 -37 -87 -44 -130 -93 -220 -158 -289 l-58
-61 -57 61 c-31 34 -76 89 -98 123 -49 72 -136 250 -145 296 -4 19 -13 36 -20
39 -7 3 -51 -11 -97 -31 -325 -139 -921 -222 -1426 -197 -413 20 -727 88 -959
205 -28 14 -55 26 -60 26 -5 0 -14 -24 -21 -54z"/>
<path d="M11845 14988 c-2 -7 -11 -36 -20 -65 -32 -103 -147 -255 -321 -423
-422 -409 -1039 -750 -1406 -777 -49 -3 -88 -9 -88 -13 0 -4 7 -13 15 -20 24
-20 80 -128 110 -210 35 -100 62 -215 86 -373 27 -172 37 -586 19 -749 -31
-289 -133 -513 -263 -579 l-39 -20 51 -26 c145 -72 220 -220 241 -480 12 -144
-2 -597 -24 -811 -32 -303 -95 -570 -167 -714 -16 -32 -29 -59 -29 -61 0 -2
26 -7 58 -11 223 -26 617 -186 912 -372 429 -270 743 -598 830 -867 9 -29 16
-37 29 -33 9 3 61 21 116 40 279 97 718 148 1280 150 229 0 335 -3 447 -17
288 -35 617 -102 742 -152 34 -14 65 -25 68 -25 3 0 8 17 12 38 28 174 404
505 676 595 104 34 119 33 185 -19 124 -98 306 -209 490 -299 274 -135 490
-210 641 -222 l72 -6 -13 51 c-16 59 -40 241 -57 432 -16 179 -16 904 0 1130
42 591 134 1116 248 1419 25 65 30 96 16 87 -18 -11 -296 -46 -482 -61 -348
-27 -528 -36 -914 -44 -662 -15 -1061 12 -1404 93 -58 13 -62 13 -58 -2 19
-64 49 -249 58 -364 19 -218 -9 -557 -58 -710 -5 -16 3 -18 68 -18 151 0 332
-31 412 -72 112 -56 151 -134 150 -298 -1 -245 -91 -395 -297 -495 -160 -78
-306 -105 -560 -105 -382 0 -643 86 -851 280 -212 199 -379 547 -455 952 -46
241 -71 554 -71 888 0 827 127 1478 353 1815 53 79 177 206 252 260 180 128
339 169 655 169 169 -1 206 -3 275 -22 483 -133 760 -596 792 -1325 l6 -148
26 6 c158 33 600 58 1061 59 372 1 502 -6 760 -44 69 -10 126 -17 127 -16 2 1
-6 63 -17 137 -55 382 -84 828 -85 1324 0 450 16 636 86 973 10 52 18 97 16
99 -2 2 -51 -8 -108 -21 -214 -51 -312 -61 -624 -60 -378 0 -762 30 -891 69
-27 8 -49 13 -50 12 -1 -1 -14 -38 -29 -82 -35 -106 -96 -218 -150 -280 l-43
-49 -55 37 c-119 82 -244 242 -298 381 -15 39 -32 72 -37 74 -6 2 -30 -7 -53
-18 -203 -104 -562 -188 -904 -211 -189 -13 -558 0 -760 26 -260 34 -496 95
-663 171 -83 38 -91 40 -97 22z"/>
<path d="M3264 7670 c-11 -4 -33 -22 -47 -40 l-27 -32 0 -219 c0 -241 3 -255
61 -285 42 -21 13446 -21 13488 0 58 31 61 44 61 286 l0 220 -34 38 -34 37
-6724 2 c-3698 1 -6732 -2 -6744 -7z"/>
<path d="M8614 6356 c-94 -44 -146 -136 -159 -283 l-7 -83 -49 0 -49 0 0 -45
0 -45 50 0 50 0 -2 -242 -3 -243 -42 -9 c-41 -9 -43 -11 -43 -48 l0 -38 190 0
190 0 0 39 0 38 -51 6 c-28 4 -57 12 -65 18 -11 9 -14 58 -14 245 l0 234 95 0
95 0 0 45 0 45 -95 0 -95 0 0 86 c0 47 5 105 11 129 20 80 83 117 136 80 l22
-15 -25 -25 c-32 -33 -31 -70 5 -106 79 -79 183 15 140 128 -14 38 -57 83 -96
99 -50 22 -130 17 -189 -10z"/>
<path d="M9740 6335 c-30 -8 -70 -14 -87 -15 -32 0 -33 -2 -33 -40 0 -40 0
-40 38 -40 21 0 43 -5 50 -12 18 -18 17 -791 0 -806 -7 -6 -30 -13 -50 -17
-36 -7 -38 -9 -38 -46 l0 -39 175 0 175 0 0 39 c0 37 -1 39 -40 45 -24 4 -43
14 -50 25 -6 13 -10 174 -10 450 0 418 -1 432 -20 451 -23 23 -34 23 -110 5z"/>
<path d="M10178 6304 c-38 -20 -61 -68 -54 -109 13 -66 92 -103 154 -71 38 20
52 44 52 91 0 49 -15 74 -55 91 -43 18 -63 17 -97 -2z"/>
<path d="M3190 6261 c0 -37 1 -38 41 -44 23 -3 46 -11 50 -19 5 -7 9 -180 9
-385 0 -411 2 -396 -65 -409 -33 -6 -35 -9 -35 -45 l0 -39 160 0 160 0 0 39
c0 38 -2 40 -38 46 -71 12 -67 -13 -69 377 l-2 353 162 -405 163 -405 40 -3
39 -3 134 373 c74 205 140 387 147 403 11 25 13 -25 14 -312 0 -382 3 -368
-71 -379 -38 -6 -39 -8 -39 -45 l0 -39 185 0 185 0 0 39 c0 38 -1 39 -40 46
-73 12 -70 -6 -70 406 0 356 1 370 20 389 12 12 33 20 55 20 34 0 35 1 35 40
l0 41 -156 -3 -156 -3 -129 -350 c-71 -192 -132 -357 -135 -365 -3 -8 -69 150
-146 353 l-141 367 -154 0 -153 0 0 -39z"/>
<path d="M5640 6261 c0 -38 0 -38 46 -44 26 -2 50 -11 55 -18 5 -8 9 -183 9
-390 0 -297 -3 -379 -13 -387 -7 -6 -32 -14 -55 -18 -41 -6 -42 -8 -42 -45 l0
-39 215 0 215 0 0 39 0 38 -60 6 c-34 4 -69 11 -79 17 -23 12 -31 58 -31 183
l0 97 78 0 c149 1 256 36 323 107 63 65 74 96 74 203 0 105 -16 150 -72 201
-78 74 -155 89 -438 89 l-225 0 0 -39z m471 -68 c73 -38 102 -89 102 -182 0
-151 -70 -221 -235 -236 l-78 -7 0 226 0 226 78 0 c66 0 87 -4 133 -27z"/>
<path d="M7910 6138 c0 -95 -33 -148 -92 -148 -26 0 -28 -2 -28 -45 l0 -45 39
0 39 0 4 -222 c3 -207 5 -226 25 -268 30 -60 77 -90 151 -97 99 -9 169 26 203
101 10 23 19 53 19 69 0 25 -3 27 -39 27 -36 0 -39 -2 -56 -45 -27 -72 -88
-87 -129 -32 -20 26 -21 43 -24 248 l-3 219 100 0 101 0 0 45 0 45 -100 0
-100 0 0 95 0 95 -55 0 -55 0 0 -42z"/>
<path d="M6695 5987 c-128 -43 -198 -131 -213 -270 -16 -142 19 -259 100 -332
66 -60 133 -79 243 -73 134 9 208 58 264 178 23 49 26 67 26 170 0 99 -3 122
-23 166 -29 64 -82 116 -147 145 -61 28 -190 35 -250 16z m181 -96 c18 -11 42
-40 55 -68 21 -42 24 -62 24 -168 0 -105 -3 -125 -22 -161 -34 -65 -76 -94
-132 -94 -90 0 -145 67 -161 195 -16 130 20 257 83 295 42 26 112 26 153 1z"/>
<path d="M7330 5989 c-19 -5 -52 -11 -72 -14 -36 -6 -38 -8 -38 -45 0 -39 0
-39 43 -42 l42 -3 0 -235 0 -235 -42 -9 c-41 -9 -43 -11 -43 -48 l0 -38 190 0
190 0 0 39 0 38 -56 6 c-31 3 -62 11 -68 17 -7 7 -12 80 -14 204 l-3 193 41
37 c44 40 63 42 68 9 9 -60 105 -80 148 -30 58 67 11 167 -78 167 -50 0 -111
-26 -150 -63 l-28 -26 0 25 c0 46 -17 64 -58 63 -20 -1 -53 -5 -72 -10z"/>
<path d="M9092 5986 c-82 -27 -150 -92 -183 -176 -29 -73 -32 -221 -6 -297 43
-123 136 -192 272 -201 222 -14 350 113 350 348 0 159 -49 251 -162 306 -46
23 -73 29 -142 31 -54 2 -102 -2 -129 -11z m202 -106 c53 -47 71 -106 71 -230
0 -94 -3 -111 -26 -155 -66 -130 -206 -129 -267 3 -23 49 -27 70 -27 152 0
119 16 174 65 222 35 35 42 38 93 38 48 0 61 -4 91 -30z"/>
<path d="M10170 5989 c-19 -5 -52 -11 -72 -14 -36 -6 -38 -8 -38 -45 0 -39 0
-39 42 -42 35 -2 43 -7 49 -28 11 -39 10 -396 -1 -424 -7 -20 -19 -27 -50 -32
-39 -6 -40 -8 -40 -45 l0 -39 170 0 170 0 0 39 c0 37 -1 38 -42 47 l-43 9 -5
276 c-4 213 -8 280 -19 292 -15 18 -61 20 -121 6z"/>
<path d="M10702 5981 c-76 -26 -122 -67 -162 -146 -34 -66 -35 -72 -35 -179 0
-101 3 -117 28 -171 54 -115 129 -164 262 -173 196 -12 317 89 345 286 27 191
-53 343 -203 387 -68 20 -170 18 -235 -4z m198 -93 c118 -80 115 -394 -4 -467
-21 -14 -50 -21 -81 -21 -41 0 -52 5 -85 38 -48 48 -70 119 -70 226 1 113 31
188 90 229 36 25 109 22 150 -5z"/>
<path d="M4410 5951 c0 -35 3 -40 29 -46 16 -3 34 -12 39 -18 6 -7 56 -126
113 -266 57 -140 114 -268 128 -284 45 -54 26 -147 -47 -225 -42 -45 -58 -42
-54 8 5 51 -17 86 -58 95 -86 19 -148 -72 -105 -155 22 -43 63 -60 143 -60 60
0 74 4 109 29 76 55 131 164 282 566 56 148 109 277 117 287 9 9 29 20 45 23
26 6 29 11 29 46 l0 39 -155 0 -155 0 0 -39 0 -39 50 -7 c31 -4 54 -13 59 -23
10 -20 -147 -458 -160 -445 -14 15 -160 424 -157 441 2 12 19 20 56 26 l52 10
0 38 0 38 -180 0 -180 0 0 -39z"/>
</g>
</svg>
